<?xml version="1.0" encoding="UTF-8"?>
<svg id="Layer_2" data-name="Layer 2" xmlns="http://www.w3.org/2000/svg" viewBox="0 0 1250.81 973.6">
  <defs>
    <style>
      .cls-1 {
        fill: #a44bf9;
      }
    </style>
  </defs>
  <g id="Layer_1-2" data-name="Layer 1">
    <g>
      <path class="cls-1" d="M0,357.6C68.16,217.7,169.48,149.24,225.54,114.58,407.35,2.16,642.99-33,853.99,33.62c159.31,50.3,294.67,147.4,378.45,277.68,6.41,9.96,12.53,20.08,18.36,30.35-43.08-75.87-121.75-146.29-198.54-192.25-123.04-73.63-271.31-127.91-422.71-127.91h-4.99c-27.59.21-55.77,2.21-83.74,5.96-93.37,12.5-185.89,41.7-275,86.74C153.53,171.03,53.97,246.81,0,357.6Z"/>
      <g>
        <g id="IYZuoX">
          <g>
            <rect class="cls-1" x="15.09" y="938.36" width="382.78" height="35.24"/>
            <rect class="cls-1" x="447.96" y="938.36" width="360.69" height="35.24"/>
            <rect class="cls-1" x="866.32" y="938.36" width="369.4" height="35.24"/>
          </g>
        </g>
        <g>
          <path class="cls-1" d="M397.86,856.86v37.33l-382.78.42c0-18.76,12.83-34.85,30.92-39.75,50.46-13.68,87.56-59.78,87.5-114.54l-.42-347.5,165.37,107.46.24,239.86c.12,58.81,42.96,107.52,99.17,116.72Z"/>
          <path class="cls-1" d="M808.66,857.52v36.18l-360.69.42v-39.82c51.13-14.16,87.92-62.93,87.86-118.42l-.42-538.35,165.37,107.4.24,434.69c.12,61.72,47.38,112.36,107.64,117.87Z"/>
          <path class="cls-1" d="M1235.72,894.19h-369.4v-40.3c49.44-14.28,85.62-59.84,85.62-113.94v-239.79l165.19-107.65v347.44c0,54.76,37.15,100.87,87.62,114.48,9.08,2.42,16.82,7.68,22.33,14.64,5.45,7.02,8.65,15.73,8.65,25.11Z"/>
        </g>
      </g>
    </g>
  </g>
</svg>